<svg id="visual" viewBox="0 0 900 600" width="900" height="600" xmlns="http://www.w3.org/2000/svg" xmlns:xlink="http://www.w3.org/1999/xlink" version="1.1"><rect x="0" y="0" width="900" height="600" fill="#000000"></rect><defs><linearGradient id="grad1_0" x1="33.3%" y1="0%" x2="100%" y2="100%"><stop offset="20%" stop-color="#000000" stop-opacity="1"></stop><stop offset="80%" stop-color="#000000" stop-opacity="1"></stop></linearGradient></defs><defs><linearGradient id="grad2_0" x1="0%" y1="0%" x2="66.7%" y2="100%"><stop offset="20%" stop-color="#000000" stop-opacity="1"></stop><stop offset="80%" stop-color="#000000" stop-opacity="1"></stop></linearGradient></defs><g transform="translate(900, 0)"><path d="M0 486.7C-87.2 475.2 -174.3 463.6 -243.4 421.5C-312.4 379.5 -363.4 306.8 -401 231.5C-438.5 156.2 -462.6 78.1 -486.7 0L0 0Z" fill="#212529"></path></g><g transform="translate(0, 600)"><path d="M0 -486.7C86.6 -474.9 173.2 -463 243.4 -421.5C313.6 -380.1 367.5 -309.2 405.3 -234C443.1 -158.8 464.9 -79.4 486.7 0L0 0Z" fill="#212529"></path></g></svg>